<svg xmlns="http://www.w3.org/2000/svg" viewBox="0 0 561.04 289.48"><defs><style>.cls-1{fill:#e9c244;}</style></defs><title>logo</title><g id="Layer_2" data-name="Layer 2"><g id="Layer_1-2" data-name="Layer 1"><path class="cls-1" d="M145.09,140.71c-.66,9.19,4.51,4,4.73.22.85-14.09,8.3-23.11,14.82-31.75,3.78-5,0-5.1-3.28-2.63-3,3.17-5.37,4.23-8,4.23-5.18,0-11.41-4.27-26.65-4.27-50.83,0-113.4,30.34-125.51,95.49C-6,241.21,18.41,289.48,68.72,289.48c28.44,0,35.59-18,49.91-13a5.56,5.56,0,0,0,6.37-3.22c2.09-5.32-.29-9,4.36-14.84,6.91-8.63.58-9.32-2.7-4.76-13.48,19-23.12,22.88-40,24.65-34,3.57-51.8-27.42-51.8-60.82,0-75.6,78.07-124.2,102.44-99.83C143,123.32,146.16,126,145.09,140.71Z"/><path class="cls-1" d="M106.4,168.24c-13.06,1-23.47,5.64-32.26,16.12C63.53,197,61.41,212.87,62,221.83a42.74,42.74,0,0,0,9.55,24.5c4.79,5.8,12.56,10.25,20.38,10.47,14.5.41,25.62-5.06,34.32-18.35,8.14-12.45,10.88-29.16,10.46-38.29C135.9,183.46,124.9,166.89,106.4,168.24ZM93.08,252c-25.88-1.22-9.31-79.95,14.58-78.74C133.24,174.53,113,252.92,93.08,252Z"/><path class="cls-1" d="M202.16,217.69c-6.21,8.77-16,18.78-23.78,19.59-15.7,1.65-19.13-11.27-19.13-23.46,0-22.41,17.54-52.16,38.38-55.63A12.55,12.55,0,0,1,208.7,162c3,3.28,2.55,7.63,2.18,12.69-.31,4.23,2.08,1.83,2.18.1.39-6.49,3.88-14,6.88-17.94,1.74-2.31,0-2.35-1.51-1.21-2.18,2.27-2.85,2.57-4.53,1.88a40.46,40.46,0,0,0-18.8-1.28c-24.61,3.78-47.35,21.43-52,46.7-3.36,18.07,4,42.34,27,39.51,6.58-.81,9.9-2.62,16.11-5.5a9.61,9.61,0,0,1,6.88-.5,3.08,3.08,0,0,0,3.11-1.38,27.83,27.83,0,0,1,7.46-15.11C207.23,216.31,203.67,215.59,202.16,217.69Z"/><path class="cls-1" d="M373.88,121.58a25.76,25.76,0,0,1-6,3.08c-3.09,1.24-7.58,2.46-17.5,4.81-12.68,3-19,4.58-31.7,7.77-17.7,4.45-16.53,3.79-19.84,1.91-.39-.29-1.56,1-1.75,1.81.46,5.19-3.09,15.26-7,19.86-1.36,3.07.19,3.65,2.53-.25,6.61-11.59,12.68-15.55,16.34-17a114.15,114.15,0,0,1,14.78-4.11c.76-.16,1,1.12.59,2.58-5.48,19.47-10.9,38.93-18,57.82-3.09,8.17-4.49,11-12.45,14.24-3.89,1.56-3.23,4.22-.2,2.77,17.12-8.14,23.56-9.78,40.64-10,2.46,0,4.24-3.15.2-2.77-9.43.87-9.72-2.84-8.56-7.6,4.92-20,10.53-39.89,17.07-59.41.78-1.94,1.39-2.52,2.72-3a68.5,68.5,0,0,1,11.47-2.51c6.94-.89,9,1,8.56,11.66-.16,3.51,2.8,3.34,2.53-.18-.46-6,2.4-14.75,6.61-20.12C375.83,121.16,374.66,121,373.88,121.58Z"/><path class="cls-1" d="M408.24,189.11c-5.62-.07-6.06-1.14-4.9-10.38,2.45-19.55,6.45-39.39,9.34-59,.32-2.16-.84-2.7-2.45-1-3.94,4.14-6.14-.34-10.25,4.47-16.09,24.14-32.57,48.1-49.52,71.64-2.91,3.89-6.43,7.05-9,7.94-1.59.55-2.53,3.29-.15,2.33,9.8-4,12-4.53,21.89-5.36,2.43-.2,3.34-2.6.31-2.36-6.69.52-6.73-1.87-1.53-10.68a116.72,116.72,0,0,1,9.64-14.49c1.38-1.67,2.5-3.32,4-3.13a23,23,0,0,0,15.61-4.13c.55-.37.46.53.46,1.14-.77,5.19-3.2,17-4.44,21.19s-1.72,5.09-6.58,6.95c-1.28.49-2.18,2.89.46,1.9,10-3.76,16.72-5,26.69-4.79C410.2,191.37,410.07,189.13,408.24,189.11Zm-15.52-29.66c-1.55,6.51-16.37,6.69-15.46,4.68,1.22-1.93,15.46-22.29,18.06-26.58.46-.54,1.07-1,1.07.57C396.4,140.43,393.49,157,392.72,159.46Z"/><path class="cls-1" d="M402.49,100.53c59.83-9.09,58.91-95.46,15.88-90C366.31,17.13,357.33,107.39,402.49,100.53Zm-.63-69.64c3.58-6.88,9.21-17,17.53-18,7.45-.87,10.43,8.5,10.83,16.44.9,17.9-4,36.48-11.63,52.74-2.93,6-8.81,15.09-14.52,15.94-6.92,1-12-4.47-12.57-16.22A108.3,108.3,0,0,1,401.86,30.89Z"/><path class="cls-1" d="M451.69,28.63a25.39,25.39,0,0,1,5-6c2.82-2.77,4.29-3.1,7.45-4.85,6.69-3.69,13.62-5.2,18.61-5C487.62,12.69,469,69.4,467.34,74c-3.28,8.81-4.76,11.81-14.06,13.47-3,.54-2.14,3.73-.09,3.22,11.56-2.92,16.7-3.33,23.75-3.2a100.36,100.36,0,0,1,20.15,1.71c2.92.59,4.92-2.66.09-3.22-11.27-1.53-11.68-5.88-10.53-11.19,3.59-17.78,11.74-56.33,13.81-61.44,1.53-3.86,6-4.6,16.78-3.86,8.26.69,11.39,1.72,11.22,14.34,0,2.65,3.31,3.12,3,.38C530.59,17,533.55,7.38,538.27,2c1.06-1.87-.32-2.29-1.22-1.8a21.81,21.81,0,0,1-7,2.26c-1.87.41-22.43,1-40.69,2.83C472.19,7,460.53,9.66,455.31,8.5a1.67,1.67,0,0,0-2,1.66,28,28,0,0,1-4.62,18.08C447.62,29.82,450.07,31.12,451.69,28.63Z"/><path class="cls-1" d="M146.47,72.55C156.58,55,165.85,49.13,171.45,47c7.26-2.72,18.9-5.16,22.59-5.88,1.16-.22,1.49,1.74.89,4-8.37,29.61-16.66,59.22-27.58,87.91-4.72,12.4-6.86,16.76-19,21.43-5.94,2.28-4.94,6.36-.3,4.23,26.17-12,36-14.3,62.13-14.21,3.77,0,6.48-4.69.3-4.23-14.41,1.08-14.86-4.61-13.08-11.86C204.9,98,213.47,67.68,223.47,38c1.19-2.94,2.12-3.82,4.16-4.5A103.55,103.55,0,0,1,245.17,30c10.61-1.18,13.83,1.75,13.08,18.06-.24,5.36,4.28,5.18,3.86-.2-.71-9.2,3.68-22.49,10.11-30.58,1.49-2.67-.3-2.91-1.49-2.08a38.52,38.52,0,0,1-9.21,4.54c-4.73,1.81-11.59,3.55-26.76,6.87-19.38,4.24-29.07,6.48-48.46,11C159.26,43.92,161,42.95,156,40c-.59-.45-2.38,1.45-2.67,2.71.7,7.94-4.73,23.24-10.7,30.17C140.53,77.51,142.91,78.44,146.47,72.55Z"/><path class="cls-1" d="M214.29,131.1c-4,1.38-5.07,4.8-.18,2.81,11.73-4.8,14.43-5.48,26.21-6.5,2.91-.25,4-3.13.37-2.84-8,.64-8.07-2.24-1.83-12.84A140.83,140.83,0,0,1,250.4,94.27c1.65-2,3-4,4.76-3.77a27.51,27.51,0,0,0,18.7-5c.66-.45.55.63.55,1.37-.92,6.25-3.83,20.46-5.32,25.5-1.43,4.87-2.06,6.13-7.88,8.37-2.52,1-3.65,3.73.55,2.28,17.3-6,28.33-5.46,33-6,5.23-.6,14.1-3.94,16.81-4.43,4.17-.75,8.21.31,16.55-1.29,4.35-.83,3.44-2.83.36-2.78-8,.08-8.88-1.56-6.16-12.55.72-2.67,6-21.73,7.07-24.83.54-1.37.91-2.16,1.81-2.34.72-.14,3.2.76,4.89,6.28,1.86,6.05,3.8,14.25,5.62,19.5,3.62,10.49,6.54,12.42,15.76,11,4.16-.64,15.4-2.27,18.48-3.39,1.09-.39,2-.38,2-1.64,0-.72-1.45-1-3.08-.86-14,.73-21.25-19.41-23.64-33.22a1.2,1.2,0,0,1,.36-1.15c23.07-16.13,29.56-48.28-.36-43.58-6.74,1.06-19.13,3.75-25.83,5-4.17.79-4.89.73-8,1.29-2.54.46-3.44,2.44,1.09,2.33,8-.19,8.36,1.21,4.53,14.33C317.46,63.81,311.6,83,305.64,102c-2.41,7.46-4.18,11.54-11.1,12.51-6.36.89-7.68-.06-6.12-12.49,2.93-23.52,7.72-47.39,11.18-71,.38-2.59-1-3.25-2.93-1.21-4.72,5-7.36-.39-12.28,5.4-19.27,29.07-39,57.93-59.3,86.29C221.6,126.22,217.38,130,214.29,131.1ZM331.55,64.4c.69-4.09,7.6-28.6,9.78-33.87,1.79-4.32,3.62-5.59,6.16-6.08,5.07-1,8.09,3.53,8.15,11,.09,10-3.26,18.88-9.6,24.46-3.26,3-9.06,5.57-13.23,6.37C331.91,66.5,331.17,66.62,331.55,64.4ZM257.18,84.56c1.47-2.33,18.51-26.84,21.63-32,.55-.65,1.28-1.15,1.28.69,0,2.76-3.48,22.72-4.4,25.66C273.84,86.73,256.09,87,257.18,84.56Z"/><path class="cls-1" d="M446,184.31c-8.12-.89-8.34-2-6.71-10.21,3.44-17.15,8-35.14,13-52.15,2.11-7.19,2.45-9,9.11-9.85,2.92-.39,2.81-2.48,0-2.43-3.62.07-5.9.73-13.28,1.13-3.61.19-11.35.09-16.58.58-2.78.26-2.68,1.88-.2,2.13,7.3.94,7.24,2,4.9,12.89-3.49,16.15-7.47,32.71-12.21,48.28-3,9.72-3.28,10.94-10.88,13.16-2.43.67-3.27,3.07.65,2.52,4.57-.64,8-1.79,16.45-2.7,5.88-.63,9.06-.27,15.28-.72C448.92,186.7,448.79,184.6,446,184.31Z"/><path class="cls-1" d="M517.08,187.89A42.78,42.78,0,0,0,524,173.14c.86-2.86-.85-2.68-2-1.55-1.58,2.4-8.83,12-16.34,12.65a77.83,77.83,0,0,1-13.31,0,87.76,87.76,0,0,1-9.42-1.44c-2.76-.67-2.56-5.2-1.73-8.55,4.73-18.48,9.22-37.36,15.14-55.18,2.09-6.3,3.36-7.31,10.6-7.63,2.77.06,2.85-2.31-.14-2.38-3.78-.09-10.5.6-15.6.6-7.76,0-13.46-.87-17-1s-3,1.75,0,2.37c7.9,2,7,4.58,5.22,11.13-4.73,17.72-8.74,34-14.69,51.41-2.83,8.29-4.81,9.2-10.78,10.24-4.95.86-2.78,2.65-.36,2.57,5-.18,13.42-1,19.65-.86,5.88.11,24.4,2.32,30.66,3C515,189.87,515.5,189.82,517.08,187.89Z"/><path class="cls-1" d="M237.8,224.5c-8.22-.35-8.22-.72-6.21-9.71,5.12-18.87,10.75-37.62,16.62-56.27,2.85-7.88,3.61-9.55,10.07-12.79,2.94-1.48,4.62-4.55,0-2.35-11.69,5.56-17.7,9.12-30.06,6.46-2.62-.56-3,2.32-.5,2.29,6.78,1.39,7.07,1.2,4,12.73-4.59,17.42-9.87,35-15.94,51.8-3.9,10.8-4.26,11.57-11.92,14.31-2.67,1-3.74,4.34.34,2.63,13.51-5.66,19.57-6.54,33.09-6.29C240.4,227.36,240.32,224.61,237.8,224.5Z"/><path class="cls-1" d="M325.11,215.89c-7.7,1.9-13.59,8.55-13.59,16.16,0,7,5.68,11.26,12.69,9.52a16.77,16.77,0,0,0,8.16-5,14.47,14.47,0,0,1-6,3.22c-6.08,1.5-11-2-11-7.92s4.93-11.9,11-13.4c4.46-1.1,8.92,1.28,8,.31a15.86,15.86,0,0,1,8.18,13.56c0,37.64-67.25,26.67-87.15-53.16,0,0,24-27.45,28.38-32.24,3.52-3.57,11.31-10,16.45-11.89,2.84-1,4.2-4.77,0-2.52-8.66,4.63-16.55,7.06-25.51,7.28-2.29.06-3.52,2.39-.34,2.43,5-.25,7.75-.4,3.69,5.45-9.56,13.78-22.39,26.05-36.1,36.2-.8.59-1.49,2.71-1.16,2.8,28.59,93.4,108,89.13,108,47.17C348.8,221.44,338.19,212.66,325.11,215.89Z"/><path class="cls-1" d="M557.65,183.82c-3-9.53-8.07-20.23-15.53-32.16-8.14-12.09-14.58-17.23-14.58-27.51,0-7.48,4.82-12.93,11.79-12.93a12.56,12.56,0,0,1,9.38,4.18c2.54,3.3,2.79,7.73,2.66,12.3,0,2,1,3,1.9.76.64-1.52,2-9.76,5.71-15,.51-.76.51-2-.89-1.39-.76.38-2.41,1.52-4.44.63A33.34,33.34,0,0,0,540,109.31c-7.86,0-12.81,1.78-17.12,4.56A21.25,21.25,0,0,0,514,130.61c0,4.69,1.14,10.52,7,19.27,9.74,14.17,16.78,26.19,21.23,36.34,15.63,35.61-6.8,54.74-26.88,54.74-12.06,0-24.17-7.15-24.17-21.06,0-25.06,34.29-25.63,34.29-5.64,0,6.71-5.58,13.27-12.64,13.27-2.08,0-3,1.31.52,1.31,19.83,0,23.32-33.11-5.32-33.11-14.25,0-23.63,11.73-23.63,25C484.35,272.88,580,255.35,557.65,183.82Z"/><path class="cls-1" d="M534,47.16c.33-2.76-1.23-6.39-5.13-6.39a13.2,13.2,0,0,0-7.82,3.07c-4.31,3.42-7.14,9.3-7.49,12.32-.51,4.29,2.36,6.24,4.95,6.24a13.55,13.55,0,0,0,4.85-1.07C528.13,59.28,533.24,53.76,534,47.16ZM519.81,60.91c-1,0-1.56-1-1.42-2.15A29.73,29.73,0,0,1,525.3,44.1c1.16-1.23,2.2-1.84,2.91-1.84,1.12,0,1.51,1,1.38,2.1-.53,4.5-5,12.83-7.47,15.13C521,60.56,520.47,60.91,519.81,60.91Z"/><path class="cls-1" d="M535.94,42.92c0,.2,0,.61.38.61l2.86-.1c.25,0,.47.31.41.41-3.75,9-6.71,16.87-9,22.64-1.93,5.21-3.22,6.64-4.29,6.64s-2.21-1.07-3.3-3c-.17-.26-.84-.2-1.16-.1-.9.31-2.49,1.74-2.6,2.71-.15,1.28.95,2.71,3.79,2.71a14,14,0,0,0,5.75-1.89A15.33,15.33,0,0,0,536,65.41c2.34-6.08,6-15.23,8.58-21.52.24-.31.47-.56.68-.56,1.47,0,3-.15,4.13-.15.66,0,1.34-1.07,1.38-1.38,0-.15-.09-.51-.34-.51l-4.33.15c-.1,0-.27-.31-.19-.51a71.92,71.92,0,0,1,5-10.32c2-3.07,3.16-3.53,4.07-3.53,1.27,0,1.72,1.33,1.41,3.58,0,.2-.15.87-.18,1.12a.63.63,0,0,0,.52.72,4.14,4.14,0,0,0,3.63-3.63c.19-1.64-.72-3.37-3.82-3.37a11.46,11.46,0,0,0-6.27,2.4c-3.25,2.15-7.19,8-9.54,13.29a1.4,1.4,0,0,1-.4.36c-.71,0-2.25.1-3.16.1C536.65,41.64,536.06,42.36,535.94,42.92Z"/></g></g></svg>